{"title":"Miles Davis Around Midnight(avi)((jazz)[rogercc]","uid":6235003,"size":368414720,"categoryP":"video","categoryS":"music_videos","magnet":"?xt=urn:btih:677345e0918336fe17946fcc5bb7faa2dbbfd420&amp;dn=Miles+Davis+Around+Midnight%28avi%29%28%28jazz%29%5Brogercc%5D&amp;tr=udp%3A%2F%2Ftracker.openbittorrent.com%3A80&amp;tr=udp%3A%2F%2Fopen.demonii.com%3A1337&amp;tr=udp%3A%2F%2Ftracker.coppersurfer.tk%3A6969&amp;tr=udp%3A%2F%2Fexodus.desync.com%3A6969","seeders":1,"leechers":0,"uploader":"rogercc1","files":1,"time":1299835080,"description":"MILES DAVIS AROUND MIDNIGHT\nStudio: Discovery Records \nDVD Release Date: 08/20/2008\nOriginal Release: 1967\nBlack and White\nFormat: avi/xvid\n\nThis Miles Davis-headlined performance film combines footage from two separate concerts with Davis on trumpet, Herbie Hancock on piano, Wayne Shorter on tenor sax, Tony Williams on drums and Ron Carter on bass. One was mounted and filmed at Stathalle, Karlsruhe, Germany, in November of \\'67, and the other at the Konserthuset in Stockholm, Sweden in October of \\'67. ~ Nathan Southern, Rovi All Movie Guide\n\nPlaylist\n1. Agitation [7:26]\n2. Footprints [9:05]\n3. Around Midnight [8:30]\n4. Gingerbread Boy [8:12]\n5. I Fall in Love Too Easily [11:33]\n\n\nGeneral\nComplete name                    : F:\\\\MUSIC UP\\\\Miles Davis Around\nFormat                           : AVI\nDuration                         : 44mn 52s\nOverall bit rate                 : 1 095 Kbps\n\nVideo\nID                               : 0\nFormat                           : MPEG-4 Visual\nFormat profile                   : Simple@L3\nCodec ID                         : XVID\nDuration                         : 44mn 52s\nBit rate                         : 635 Kbps\nWidth x Height            : 576  x 432 pixels\nDisplay aspect ratio             : 4:3\nFrame rate                       : 29.970 fps\nBit depth                        : 8 bits\nScan type                        : Progressive\nCompression mode                 : Lossy\nBits/(Pixel*Frame)               : 0.085\nStream size                      : 204 MiB (58%)\nWriting library                  : XviD 1.0.3 (UTC 2004-12-20)\n\nAudio\nID                               : 1\nFormat                           : AC-3\nMode extension                   : CM (complete main)\nCodec ID                         : 2000\nDuration                         : 44mn 52s\nBit rate mode                    : Constant\nBit rate                         : 448 Kbps\nChannel(s)                       : 2 channels\nChannel positions                : Front: L R\nSampling rate                    : 48.0 KHz\nBit depth                        : 16 bits\nCompression mode                 : Lossy\nStream size                      : 144 MiB (41%)\n","torrent":{"xt":"urn:btih:677345e0918336fe17946fcc5bb7faa2dbbfd420","amp;dn":"Miles+Davis+Around+Midnight%28avi%29%28%28jazz%29%5Brogercc%5D","amp;tr":["udp%3A%2F%2Ftracker.openbittorrent.com%3A80","udp%3A%2F%2Fopen.demonii.com%3A1337","udp%3A%2F%2Ftracker.coppersurfer.tk%3A6969","udp%3A%2F%2Fexodus.desync.com%3A6969"],"infoHash":"677345e0918336fe17946fcc5bb7faa2dbbfd420","infoHashBuffer":{"type":"Buffer","data":[103,115,69,224,145,131,54,254,23,148,111,204,91,183,250,162,219,191,212,32]},"announce":[],"urlList":[]}}